<?xml version="1.0" encoding="UTF-8" standalone="no"?>
<svg
   width="24"
   height="24"
   viewBox="0 0 24 24"
   fill="currentColor"
   class="icon icon-tabler icons-tabler-filled icon-tabler-quote"
   version="1.1"
   id="svg3"
   sodipodi:docname="quote.svg"
   inkscape:version="1.4 (e7c3feb1, 2024-10-09)"
   xmlns:inkscape="http://www.inkscape.org/namespaces/inkscape"
   xmlns:sodipodi="http://sodipodi.sourceforge.net/DTD/sodipodi-0.dtd"
   xmlns="http://www.w3.org/2000/svg"
   xmlns:svg="http://www.w3.org/2000/svg">
  <defs
     id="defs3" />
  <sodipodi:namedview
     id="namedview3"
     pagecolor="#505050"
     bordercolor="#eeeeee"
     borderopacity="1"
     inkscape:showpageshadow="0"
     inkscape:pageopacity="0"
     inkscape:pagecheckerboard="0"
     inkscape:deskcolor="#505050"
     inkscape:zoom="25"
     inkscape:cx="12"
     inkscape:cy="12"
     inkscape:window-width="1440"
     inkscape:window-height="847"
     inkscape:window-x="0"
     inkscape:window-y="25"
     inkscape:window-maximized="0"
     inkscape:current-layer="svg3" />
  <g
     id="g3"
     transform="matrix(1.4152335,0,0,1.4152335,-4.982802,-4.98403)">
    <path
       d="m 9,5 a 2,2 0 0 1 2,2 v 6 c 0,3.13 -1.65,5.193 -4.757,5.97 A 1,1 0 1 1 5.757,17.03 C 7.984,16.473 9,15.203 9,13 V 12 H 6 A 2,2 0 0 1 4.005,10.15 L 4,10 V 7 A 2,2 0 0 1 6,5 Z"
       id="path2"
       style="fill:#363636;fill-opacity:1" />
    <path
       d="m 18,5 a 2,2 0 0 1 2,2 v 6 c 0,3.13 -1.65,5.193 -4.757,5.97 A 1,1 0 1 1 14.757,17.03 C 16.984,16.473 18,15.203 18,13 V 12 H 15 A 2,2 0 0 1 13.005,10.15 L 13,10 V 7 a 2,2 0 0 1 2,-2 z"
       id="path3"
       style="fill:#363636;fill-opacity:1" />
  </g>
</svg>
